<svg xmlns="http://www.w3.org/2000/svg" width="678.667" height="678.667" preserveAspectRatio="xMidYMid meet" version="1.0" viewBox="0 0 509 509"><metadata>Created by potrace 1.11, written by Peter Selinger 2001-2013</metadata><g fill="#000" stroke="none"><path d="M2203 5075 c-567 -72 -1070 -324 -1468 -736 -454 -470 -685 -1069 -685 -1779 0 -499 110 -890 358 -1270 173 -265 443 -541 717 -732 598 -417 1349 -619 2015 -542 688 78 1255 421 1638 990 78 117 170 282 222 401 48 108 47 44 4 518 -14 148 -34 339 -44 425 -11 85 -20 158 -20 163 0 4 -4 7 -9 7 -4 0 -11 -39 -15 -88 -13 -179 -66 -417 -132 -602 -80 -220 -236 -500 -382 -685 -73 -92 -258 -281 -353 -361 -330 -276 -760 -468 -1204 -536 -198 -30 -502 -30 -703 1 -223 34 -439 95 -616 174 l-69 31 7 75 c3 42 20 227 36 411 17 184 30 336 30 337 0 1 44 -25 97 -58 111 -68 268 -136 398 -174 287 -83 617 -86 904 -9 728 196 1240 860 1241 1612 l0 122 -295 2 c-162 0 -301 1 -307 2 -9 1 -15 -30 -20 -106 -14 -230 -76 -415 -199 -594 -59 -85 -190 -215 -276 -273 -445 -299 -1024 -243 -1400 137 -46 46 -83 79 -83 74 0 -20 -61 -707 -63 -715 -4 -15 -127 84 -217 174 -258 257 -425 591 -475 947 -14 96 -16 162 -12 295 7 235 41 405 118 602 67 173 151 306 305 486 132 153 240 241 414 333 211 111 424 173 675 196 315 30 729 -75 1030 -260 328 -202 587 -511 701 -837 18 -52 19 -53 59 -53 98 0 739 21 742 24 2 2 -12 57 -31 122 -115 399 -326 756 -620 1049 -373 371 -814 597 -1340 686 -160 27 -511 35 -673 14z" transform="translate(0.000000,509.000000) scale(0.100000,-0.100000)"/><path d="M2265 3784 c-452 -82 -805 -431 -891 -882 -18 -97 -18 -299 1 -399 18 -97 54 -204 95 -287 32 -64 111 -186 121 -186 3 0 21 154 40 342 27 272 35 331 41 292 38 -257 90 -369 240 -516 75 -75 103 -95 191 -138 128 -62 212 -82 347 -83 340 -2 636 210 745 535 22 65 29 108 33 201 l5 117 -777 0 c-742 0 -776 1 -776 18 0 46 46 185 87 265 171 331 565 493 921 379 128 -41 221 -99 320 -199 l83 -83 174 0 c115 0 175 4 175 10 0 19 -41 93 -92 167 -58 83 -187 211 -273 270 -237 160 -538 226 -810 177z" transform="translate(0.000000,509.000000) scale(0.100000,-0.100000)"/></g></svg>